<svg width="35" height="31" viewBox="0 0 35 31" fill="none" xmlns="http://www.w3.org/2000/svg">
<path fill-rule="evenodd" clip-rule="evenodd" d="M24.6632 14.4409C25.0205 13.8221 25.0205 13.0597 24.6632 12.4409L18.4795 1.73035C17.7097 0.397012 15.7852 0.397015 15.0154 1.73035L0.270933 27.2684C-0.498867 28.6018 0.463384 30.2684 2.00298 30.2684H14.3705C15.085 30.2684 15.7453 29.8872 16.1026 29.2684L24.6632 14.4409Z" fill="#2B2D42"/>
<path d="M25.7604 20.6718C26.5302 19.3384 28.4547 19.3384 29.2245 20.6718L33.0339 27.2697C33.8037 28.603 32.8414 30.2697 31.3018 30.2697H23.6832C22.1436 30.2697 21.1813 28.603 21.9511 27.2697L25.7604 20.6718Z" fill="#4B5FF6"/>
</svg>
