<svg width="24" height="24" viewBox="0 0 24 24" fill="none" xmlns="http://www.w3.org/2000/svg">
<path fill-rule="evenodd" clip-rule="evenodd" d="M11.625 7.5C12.0392 7.5 12.375 7.83579 12.375 8.25V12C12.375 12.4142 12.0392 12.75 11.625 12.75C11.2108 12.75 10.875 12.4142 10.875 12V8.25C10.875 7.83579 11.2108 7.5 11.625 7.5Z" fill="#FF6A55"/>
<path fill-rule="evenodd" clip-rule="evenodd" d="M19.5 6.75C19.5 6.33579 19.1642 6 18.75 6L4.5 6C4.08579 6 3.75 6.33579 3.75 6.75V17.25C3.75 17.6642 4.08579 18 4.5 18H18.75C19.1642 18 19.5 17.6642 19.5 17.25V6.75ZM18.75 4.5C19.9926 4.5 21 5.50736 21 6.75V17.25C21 18.4926 19.9926 19.5 18.75 19.5H4.5C3.25736 19.5 2.25 18.4926 2.25 17.25V6.75C2.25 5.50736 3.25736 4.5 4.5 4.5L18.75 4.5Z" fill="#FF6A55"/>
<path d="M11.625 16.5C12.2463 16.5 12.75 15.9963 12.75 15.375C12.75 14.7537 12.2463 14.25 11.625 14.25C11.0037 14.25 10.5 14.7537 10.5 15.375C10.5 15.9963 11.0037 16.5 11.625 16.5Z" fill="#FF6A55"/>
</svg>
