<svg width="25" height="24" viewBox="0 0 25 24" fill="none" xmlns="http://www.w3.org/2000/svg">
<path d="M18.5 8C18.5 6.4087 17.8679 4.88258 16.7426 3.75736C15.6174 2.63214 14.0913 2 12.5 2C10.9087 2 9.38258 2.63214 8.25736 3.75736C7.13214 4.88258 6.5 6.4087 6.5 8C6.5 15 3.5 17 3.5 17H21.5C21.5 17 18.5 15 18.5 8Z" stroke="#2B2D42" stroke-width="1.33333" stroke-linecap="round" stroke-linejoin="round"/>
<path d="M14.2308 21C14.055 21.3031 13.8027 21.5547 13.4991 21.7295C13.1955 21.9044 12.8512 21.9965 12.5008 21.9965C12.1505 21.9965 11.8062 21.9044 11.5026 21.7295C11.199 21.5547 10.9467 21.3031 10.7708 21" stroke="#2B2D42" stroke-width="1.33333" stroke-linecap="round" stroke-linejoin="round"/>
<circle cx="17.8385" cy="5.3842" r="3.10677" fill="#EC5651" stroke="white" stroke-width="1.33333"/>
</svg>
