<svg width="26" height="22" viewBox="0 0 26 22" fill="none" xmlns="http://www.w3.org/2000/svg">
<path d="M1.33337 15.7834C2.45441 16.012 3.48347 16.5653 4.29249 17.3743C5.1015 18.1833 5.65474 19.2124 5.88337 20.3334M1.33337 11.0584C3.70263 11.3219 5.9117 12.3838 7.59734 14.0694C9.28299 15.7551 10.3449 17.9642 10.6084 20.3334M1.33337 6.33341V4.00008C1.33337 3.38124 1.57921 2.78775 2.01679 2.35017C2.45438 1.91258 3.04787 1.66675 3.66671 1.66675H22.3334C22.9522 1.66675 23.5457 1.91258 23.9833 2.35017C24.4209 2.78775 24.6667 3.38124 24.6667 4.00008V18.0001C24.6667 18.6189 24.4209 19.2124 23.9833 19.65C23.5457 20.0876 22.9522 20.3334 22.3334 20.3334H15.3334" stroke="#4B5FF6" stroke-width="2" stroke-linecap="round" stroke-linejoin="round"/>
</svg>
