<svg width="28" height="28" viewBox="0 0 28 28" fill="none" xmlns="http://www.w3.org/2000/svg">
<g clip-path="url(#clip0_149_557)">
<path d="M2.33337 18.7834C3.45441 19.012 4.48347 19.5653 5.29249 20.3743C6.1015 21.1833 6.65474 22.2124 6.88337 23.3334M2.33337 14.0584C4.70263 14.3219 6.9117 15.3838 8.59734 17.0694C10.283 18.7551 11.3449 20.9642 11.6084 23.3334M2.33337 9.33341V7.00008C2.33337 6.38124 2.57921 5.78775 3.01679 5.35017C3.45438 4.91258 4.04787 4.66675 4.66671 4.66675H23.3334C23.9522 4.66675 24.5457 4.91258 24.9833 5.35017C25.4209 5.78775 25.6667 6.38124 25.6667 7.00008V21.0001C25.6667 21.6189 25.4209 22.2124 24.9833 22.65C24.5457 23.0876 23.9522 23.3334 23.3334 23.3334H16.3334" stroke="#9F9FA9" stroke-width="2" stroke-linecap="round" stroke-linejoin="round"/>
</g>
<defs>
<clipPath id="clip0_149_557">
<rect width="28" height="28" fill="white"/>
</clipPath>
</defs>
</svg>
