<svg width="28" height="28" viewBox="0 0 28 28" fill="none" xmlns="http://www.w3.org/2000/svg">
<path d="M5.83331 19.8333H4.66665C4.04781 19.8333 3.45432 19.5875 3.01673 19.1499C2.57915 18.7123 2.33331 18.1188 2.33331 17.5V5.83333C2.33331 5.21449 2.57915 4.621 3.01673 4.18342C3.45432 3.74583 4.04781 3.5 4.66665 3.5H23.3333C23.9522 3.5 24.5456 3.74583 24.9832 4.18342C25.4208 4.621 25.6666 5.21449 25.6666 5.83333V17.5C25.6666 18.1188 25.4208 18.7123 24.9832 19.1499C24.5456 19.5875 23.9522 19.8333 23.3333 19.8333H22.1666" stroke="#4B5FF6" stroke-width="2" stroke-linecap="round" stroke-linejoin="round"/>
<path d="M14 17.5L19.8334 24.5H8.16669L14 17.5Z" stroke="#4B5FF6" stroke-width="2" stroke-linecap="round" stroke-linejoin="round"/>
</svg>
