<svg width="28" height="28" viewBox="0 0 28 28" fill="none" xmlns="http://www.w3.org/2000/svg">
<path d="M5.83337 19.8333H4.66671C4.04787 19.8333 3.45438 19.5875 3.01679 19.1499C2.57921 18.7123 2.33337 18.1188 2.33337 17.5V5.83333C2.33337 5.21449 2.57921 4.621 3.01679 4.18342C3.45438 3.74583 4.04787 3.5 4.66671 3.5H23.3334C23.9522 3.5 24.5457 3.74583 24.9833 4.18342C25.4209 4.621 25.6667 5.21449 25.6667 5.83333V17.5C25.6667 18.1188 25.4209 18.7123 24.9833 19.1499C24.5457 19.5875 23.9522 19.8333 23.3334 19.8333H22.1667" stroke="#9F9FA9" stroke-width="2" stroke-linecap="round" stroke-linejoin="round"/>
<path d="M14 17.5L19.8333 24.5H8.16663L14 17.5Z" stroke="#9F9FA9" stroke-width="2" stroke-linecap="round" stroke-linejoin="round"/>
</svg>
