<svg width="23" height="23" viewBox="0 0 23 23" fill="none" xmlns="http://www.w3.org/2000/svg">
<g clip-path="url(#clip0_76_2974)">
<path fill-rule="evenodd" clip-rule="evenodd" d="M9.28857 3.01558C4.43877 4.31506 1.55639 9.30726 2.85588 14.1571C4.15536 19.0069 9.14756 21.8892 13.9974 20.5897C18.8472 19.2903 21.7295 14.2981 20.43 9.44827C19.1306 4.59847 14.1384 1.71609 9.28857 3.01558ZM10.7375 8.42309C12.6027 7.9231 14.5229 9.0319 15.0225 10.8972C15.5225 12.7624 14.4137 14.6826 12.5485 15.1822C10.6832 15.6822 8.76304 14.5734 8.2634 12.7082C7.76341 10.8429 8.8722 8.92273 10.7375 8.42309Z" fill="#EC5651"/>
<path fill-rule="evenodd" clip-rule="evenodd" d="M9.32312 14.422C9.67616 14.7337 10.089 14.972 10.5351 15.1218L7.71504 20.0065C7.29378 19.8047 6.8886 19.5706 6.50302 19.3068L9.32312 14.422ZM14.9619 12.9112L19.8467 15.7313C19.6448 16.1525 19.4107 16.5577 19.1469 16.9433L14.2621 14.1232C14.5739 13.7701 14.8122 13.3573 14.9619 12.9112ZM4.13953 6.66288L9.02432 9.48298C8.71257 9.83601 8.4743 10.2489 8.32455 10.695L3.43976 7.87489C3.64164 7.45362 3.87572 7.04846 4.13953 6.66288ZM15.5714 3.59961C15.9927 3.80149 16.3979 4.03557 16.7834 4.29939L13.9633 9.18417C13.6103 8.87242 13.1974 8.63415 12.7513 8.48439L15.5714 3.59961Z" fill="white"/>
</g>
<defs>
<clipPath id="clip0_76_2974">
<rect width="22.3928" height="22.3928" fill="white" transform="translate(0.446899 0.607178)"/>
</clipPath>
</defs>
</svg>
