<svg width="1728" height="461" viewBox="0 0 1728 461" fill="none" xmlns="http://www.w3.org/2000/svg">
<g clip-path="url(#clip0_43_3170)">
<path d="M81.3105 181.95C81.3105 181.95 96.6605 192.81 99.7205 191.03C102.78 189.25 104.98 179.11 104.98 179.11C106.67 179.35 107.981 179.78 109.631 179.31C111.181 178.52 108.44 171.66 108.73 166.74C109.02 161.82 110.45 155.34 108.89 152.33" stroke="black" stroke-width="1.56" stroke-miterlimit="10"/>
<path d="M64.9492 182.51C68.1689 179.515 71.0649 176.19 73.5894 172.59" stroke="black" stroke-width="1.56" stroke-miterlimit="10"/>
<path d="M89.9906 189.17C89.9906 189.17 81.6005 198.98 81.6605 202.78" stroke="black" stroke-width="1.56" stroke-miterlimit="10"/>
<path d="M68.3401 179.16L81.6399 200.88L65.1799 182.31L68.3401 179.16Z" fill="black"/>
<path d="M69.1607 176.41C68.2907 174.1 59.3308 144.03 68.2708 137.69C77.2108 131.35 93.0709 129.61 104.601 134.52C116.131 139.43 115.771 148.81 108.891 152.33C102.011 155.85 88.7409 151.24 87.3009 153.55C86.6573 154.717 86.2176 155.985 86.0008 157.3C85.9502 157.582 85.8365 157.85 85.6681 158.083C85.4997 158.316 85.2809 158.507 85.0282 158.644C84.7754 158.78 84.495 158.858 84.2081 158.871C83.9211 158.884 83.6351 158.832 83.3709 158.72C82.3177 158.216 81.1198 158.103 79.9908 158.4C76.5208 159.27 78.6509 173.73 76.0509 175.46C73.4509 177.19 69.1607 176.41 69.1607 176.41Z" fill="black"/>
<path d="M57 609C58.1172 514.996 96.3269 425.219 163.344 359.139C230.36 293.058 320.781 256 415 256C509.219 256 599.64 293.058 666.656 359.139C733.673 425.219 771.883 514.996 773 609H57Z" fill="#FBFBFD"/>
<path d="M88.6506 209.96L87.6506 218.73C87.6285 218.93 87.5525 219.12 87.4307 219.28C87.3101 219.443 87.1478 219.571 86.9607 219.65C86.7712 219.729 86.5652 219.76 86.3608 219.74C86.1583 219.716 85.9653 219.64 85.8008 219.52L85.2708 219.11L85.5208 215.77C85.7364 212.931 85.1768 210.087 83.9016 207.542C82.6264 204.997 80.6835 202.846 78.2808 201.32L58.6807 188.86C57.9655 188.426 57.1953 188.089 56.3906 187.86L60.8308 182.95C61.1591 182.597 61.5576 182.318 62.0007 182.13C62.449 181.939 62.9339 181.85 63.4207 181.87C63.9042 181.881 64.3796 181.997 64.8132 182.211C65.2469 182.426 65.6283 182.732 65.9307 183.11L88.6506 209.96Z" stroke="black" stroke-width="1.56" stroke-miterlimit="10"/>
<path d="M56.4199 187.79C57.2246 188.019 57.9948 188.356 58.71 188.79L78.3101 201.25C80.7128 202.777 82.6555 204.928 83.9307 207.473C85.2059 210.018 85.7657 212.861 85.55 215.7L85.26 219.04" stroke="black" stroke-width="1.56" stroke-miterlimit="10"/>
<path d="M77.7605 285.13L73.0605 314.13" stroke="black" stroke-width="1.56" stroke-miterlimit="10"/>
<path d="M85.2605 219.1L79.7305 261.62" stroke="black" stroke-width="1.56" stroke-miterlimit="10"/>
<path d="M162.92 368.04L129.38 453.09H110.26L129.42 354.87C124.92 357.78 117.68 360.63 108.81 362.94C87.7401 368.39 57.5 370.72 33.04 363.34C12.8 357.22 -3.3999 344.45 -7.1499 321.34C-7.6399 318.34 -8 315.34 -8.25 312.34C5.96 322.22 109.48 307.54 143.75 318.97C150.93 321.34 176.1 333.33 162.92 368.04Z" fill="black"/>
<path d="M-8.29102 312.32C1.38898 253.48 29.8892 206.15 48.3792 189.64C49.4501 188.665 50.7503 187.977 52.1589 187.64C53.5649 187.312 55.0318 187.349 56.4189 187.75" stroke="black" stroke-width="1.56" stroke-miterlimit="10"/>
<path d="M2294 460H76" stroke="black" stroke-width="1.56" stroke-miterlimit="10"/>
<path d="M108.78 362.96C87.6995 368.41 57.3995 370.74 33.0195 363.35" stroke="black" stroke-width="1.56" stroke-miterlimit="10"/>
<path d="M104.26 370.169C84.6131 374.576 67.253 376.78 52.1797 376.78C27.4697 376.78 8.70983 370.88 -4.64017 359.07C-37.4802 329.96 -31.5603 271.069 -25.3003 208.699L-24.7303 202.84C-24.5346 201.287 -23.7405 199.873 -22.5169 198.897C-21.2933 197.922 -19.7371 197.464 -18.1802 197.62C-16.6252 197.777 -15.193 198.535 -14.1883 199.732C-13.1835 200.929 -12.6856 202.471 -12.8003 204.03L-13.4102 209.959C-19.3502 269.129 -24.9602 325.179 3.28976 350.189C10.8398 356.889 20.6897 361.289 32.9997 363.439C57.4597 370.819 87.6997 368.44 108.76 363.04C108.933 363.802 108.953 364.592 108.819 365.363C108.685 366.133 108.4 366.87 107.98 367.53C107.136 368.865 105.799 369.814 104.26 370.169V370.169Z" stroke="black" stroke-width="1.56" stroke-miterlimit="10"/>
<path d="M76.04 460.29H-25.74C-17.44 454.67 2.2599 450.71 25.1499 450.71C48.0399 450.71 67.74 454.67 76.04 460.29Z" stroke="black" stroke-width="1.56" stroke-miterlimit="10"/>
<path d="M33.5405 375.26L25.1504 450.72" stroke="black" stroke-width="1.56" stroke-miterlimit="10"/>
<path d="M186.89 264.439C186.89 264.439 209.53 275.529 208.04 275.979C205.91 276.759 198.2 273.54 198.2 273.54C198.2 273.54 194.81 276.78 193.07 276.36C190.872 275.852 188.746 275.073 186.74 274.04" stroke="black" stroke-width="1.56" stroke-miterlimit="10"/>
<path d="M108.779 460.29L110.209 453.11H126.969C134.969 453.11 142.789 456.37 149.749 460.29H108.779Z" stroke="black" stroke-miterlimit="10"/>
<path d="M129.379 453.11H110.259L129.419 354.89C124.919 357.8 117.679 360.649 108.809 362.959C87.7391 368.409 57.4991 370.74 33.0391 363.36" stroke="black" stroke-width="1.56" stroke-miterlimit="10"/>
<path d="M-8.29102 312.32C0.208984 318.24 40.709 315.32 79.199 314.53" stroke="black" stroke-width="1.56" stroke-miterlimit="10"/>
<path d="M108.769 362.96C87.699 368.41 57.459 370.74 32.999 363.36C12.759 357.24 -3.44092 344.47 -7.19092 321.36C-7.68092 318.36 -8.04102 315.36 -8.29102 312.36" stroke="black" stroke-width="1.56" stroke-miterlimit="10"/>
<path d="M129.369 453.13H110.199L129.369 354.89" stroke="black" stroke-width="1.56" stroke-miterlimit="10"/>
<path d="M346.4 280.04H170.32V291.62H346.4" stroke="black" stroke-width="1.16" stroke-miterlimit="10"/>
<path d="M187.33 291.59V460.77" stroke="black" stroke-width="1.16" stroke-miterlimit="10"/>
<path d="M67.3501 212.46L79.76 261.62L180.68 263.52L182.22 276.81L71.1399 285.39C68.6686 285.588 66.1969 285.015 64.0642 283.751C61.9315 282.487 60.2427 280.593 59.23 278.33L41.8301 233.15" stroke="black" stroke-width="1.56" stroke-miterlimit="10"/>
<path d="M247.38 276.69H186.09V280.2H247.38V276.69Z" fill="black"/>
<path d="M243.51 276.79L264.15 230.14L266.57 230.94L246.92 276.69L243.51 276.79Z" stroke="black" stroke-miterlimit="10"/>
<path d="M182.41 275.76L186.17 275.61L186.8 263.68L180.68 263.53" stroke="black" stroke-width="1.56" stroke-miterlimit="10"/>
<path d="M76.1606 293.32C76.1606 293.32 58.4007 294.24 55.7607 288.06C48.2907 270.59 41.2207 233.65 41.2207 233.65C41.2207 233.65 55.8207 272.51 59.2207 278.33C62.6207 284.15 67.7908 285.57 72.7708 285.33L77.7708 285.11L76.1606 293.32Z" fill="black"/>
<path d="M1333.17 393.93H1400.51L1393.81 460.31H1338.33L1333.17 393.93Z" stroke="black" stroke-miterlimit="10"/>
<path d="M1298 459.23C1299.37 459.23 1338.13 445.91 1338.13 445.91L1339.13 459.91L1298 459.23Z" fill="black"/>
<path d="M1336.98 312.21L1365.21 336.09C1365.21 336.09 1364.78 382.37 1364.83 385.48" stroke="black" stroke-miterlimit="10"/>
<path d="M1358.09 330.06L1365.66 279.55L1408.54 254.2" stroke="black" stroke-miterlimit="10" stroke-linecap="round"/>
<path d="M1383.31 269.12L1347.7 201.07L1311.14 181.09" stroke="black" stroke-miterlimit="10" stroke-linecap="round"/>
<path d="M1350.9 312.58C1349.9 313.8 1347.29 313.29 1347.29 313.29C1347.29 313.29 1346.19 310.82 1347.15 309.61C1347.33 309.318 1347.57 309.067 1347.85 308.874C1348.14 308.681 1348.46 308.55 1348.8 308.491C1349.14 308.432 1349.48 308.446 1349.81 308.531C1350.15 308.616 1350.46 308.771 1350.73 308.985C1350.99 309.2 1351.21 309.469 1351.37 309.774C1351.53 310.08 1351.61 310.415 1351.63 310.758C1351.65 311.101 1351.59 311.444 1351.47 311.763C1351.34 312.082 1351.15 312.371 1350.9 312.61V312.58Z" fill="black"/>
<path d="M1347.06 318.04C1346.06 316.85 1347.06 314.36 1347.06 314.36C1347.06 314.36 1349.7 313.79 1350.69 314.98C1350.97 315.203 1351.2 315.486 1351.35 315.807C1351.51 316.129 1351.6 316.481 1351.6 316.839C1351.6 317.196 1351.53 317.551 1351.38 317.876C1351.23 318.201 1351.01 318.489 1350.74 318.72C1350.47 318.951 1350.14 319.118 1349.8 319.209C1349.45 319.301 1349.09 319.314 1348.74 319.249C1348.39 319.184 1348.06 319.042 1347.77 318.833C1347.47 318.624 1347.23 318.353 1347.06 318.04Z" fill="black"/>
<path d="M1342.95 314.77C1344.36 315.4 1346.49 313.77 1346.49 313.77C1346.49 313.77 1346.33 311.08 1344.92 310.44C1344.63 310.249 1344.3 310.123 1343.95 310.072C1343.61 310.02 1343.25 310.044 1342.92 310.141C1342.58 310.238 1342.27 310.406 1342.01 310.635C1341.74 310.863 1341.53 311.146 1341.38 311.464C1341.24 311.782 1341.16 312.127 1341.16 312.477C1341.16 312.827 1341.24 313.172 1341.38 313.49C1341.53 313.808 1341.74 314.09 1342.01 314.318C1342.27 314.546 1342.58 314.714 1342.92 314.81L1342.95 314.77Z" fill="black"/>
<path d="M1332.56 304.54C1333.72 305.54 1333.06 308.19 1333.06 308.19C1333.06 308.19 1330.53 309.19 1329.38 308.12C1329.08 307.933 1328.82 307.683 1328.63 307.387C1328.43 307.091 1328.31 306.756 1328.26 306.405C1328.2 306.055 1328.23 305.697 1328.33 305.358C1328.43 305.018 1328.61 304.705 1328.84 304.44C1329.08 304.175 1329.37 303.965 1329.69 303.824C1330.02 303.683 1330.37 303.615 1330.73 303.625C1331.08 303.634 1331.43 303.721 1331.74 303.879C1332.06 304.037 1332.34 304.263 1332.56 304.54Z" fill="black"/>
<path d="M1337.79 308.66C1336.54 309.58 1334.11 308.4 1334.11 308.4C1334.11 308.4 1333.69 305.72 1334.94 304.8C1335.19 304.548 1335.48 304.354 1335.81 304.229C1336.14 304.104 1336.49 304.052 1336.85 304.076C1337.2 304.101 1337.54 304.201 1337.85 304.37C1338.15 304.539 1338.42 304.774 1338.63 305.057C1338.84 305.34 1338.99 305.665 1339.06 306.01C1339.13 306.354 1339.12 306.71 1339.04 307.053C1338.96 307.395 1338.81 307.716 1338.59 307.994C1338.38 308.271 1338.1 308.499 1337.79 308.66Z" fill="black"/>
<path d="M1334.29 312.6C1335 311.23 1333.46 309.01 1333.46 309.01C1333.46 309.01 1330.75 309.01 1330.04 310.38C1329.83 310.662 1329.68 310.986 1329.61 311.331C1329.53 311.676 1329.53 312.032 1329.61 312.376C1329.69 312.72 1329.84 313.043 1330.06 313.323C1330.27 313.603 1330.55 313.832 1330.86 313.995C1331.17 314.158 1331.51 314.251 1331.87 314.268C1332.22 314.285 1332.57 314.225 1332.9 314.093C1333.22 313.96 1333.52 313.758 1333.76 313.5C1334 313.242 1334.18 312.935 1334.29 312.6Z" fill="black"/>
<path d="M1342.32 328.95C1343.21 327.69 1345.89 328.03 1345.89 328.03C1345.89 328.03 1347.14 330.43 1346.25 331.7C1346.1 332.017 1345.88 332.298 1345.61 332.522C1345.33 332.745 1345.02 332.908 1344.68 332.997C1344.33 333.086 1343.98 333.1 1343.63 333.037C1343.29 332.975 1342.96 332.838 1342.67 332.637C1342.38 332.435 1342.14 332.172 1341.96 331.868C1341.78 331.564 1341.67 331.224 1341.64 330.874C1341.61 330.523 1341.65 330.169 1341.77 329.837C1341.89 329.505 1342.07 329.202 1342.32 328.95Z" fill="black"/>
<path d="M1345.81 323.29C1346.87 324.42 1345.98 326.97 1345.98 326.97C1345.98 326.97 1343.37 327.69 1342.32 326.56C1342.04 326.345 1341.82 326.072 1341.66 325.762C1341.5 325.451 1341.41 325.11 1341.39 324.761C1341.38 324.412 1341.44 324.064 1341.57 323.741C1341.7 323.417 1341.9 323.126 1342.16 322.888C1342.41 322.649 1342.71 322.468 1343.05 322.358C1343.38 322.247 1343.73 322.21 1344.08 322.248C1344.42 322.286 1344.76 322.399 1345.06 322.579C1345.36 322.759 1345.61 323.001 1345.81 323.29Z" fill="black"/>
<path d="M1350.14 326.31C1348.69 325.76 1346.66 327.54 1346.66 327.54C1346.66 327.54 1346.98 330.23 1348.42 330.78C1348.72 330.95 1349.06 331.053 1349.4 331.082C1349.75 331.11 1350.1 331.064 1350.43 330.947C1350.75 330.829 1351.05 330.642 1351.3 330.399C1351.55 330.157 1351.74 329.863 1351.86 329.539C1351.99 329.215 1352.04 328.868 1352.02 328.521C1352 328.174 1351.9 327.836 1351.74 327.53C1351.58 327.224 1351.35 326.956 1351.07 326.746C1350.8 326.535 1350.48 326.386 1350.14 326.31Z" fill="black"/>
<path d="M1371.73 317.25C1370.19 317.07 1369.22 314.55 1369.22 314.55C1369.22 314.55 1370.74 312.31 1372.28 312.49C1372.63 312.471 1372.99 312.53 1373.31 312.661C1373.64 312.793 1373.94 312.995 1374.18 313.252C1374.42 313.51 1374.6 313.817 1374.72 314.153C1374.83 314.488 1374.86 314.844 1374.82 315.195C1374.78 315.546 1374.67 315.885 1374.48 316.186C1374.3 316.487 1374.05 316.745 1373.75 316.94C1373.46 317.136 1373.13 317.265 1372.78 317.318C1372.43 317.372 1372.07 317.348 1371.73 317.25Z" fill="black"/>
<path d="M1365.06 316.88C1365.55 315.41 1368.22 314.979 1368.22 314.979C1368.22 314.979 1370.1 316.93 1369.61 318.4C1369.55 318.747 1369.42 319.078 1369.22 319.37C1369.03 319.661 1368.77 319.907 1368.47 320.089C1368.17 320.271 1367.83 320.385 1367.48 320.424C1367.13 320.463 1366.78 320.425 1366.44 320.314C1366.11 320.202 1365.8 320.019 1365.55 319.778C1365.29 319.537 1365.09 319.243 1364.96 318.916C1364.83 318.589 1364.77 318.238 1364.78 317.886C1364.8 317.535 1364.9 317.191 1365.06 316.88Z" fill="black"/>
<path d="M1365.69 311.64C1365.89 313.17 1368.42 314.11 1368.42 314.11C1368.42 314.11 1370.64 312.55 1370.42 311.02C1370.43 310.673 1370.36 310.329 1370.22 310.012C1370.08 309.694 1369.87 309.41 1369.61 309.18C1369.35 308.949 1369.05 308.777 1368.71 308.675C1368.38 308.572 1368.03 308.543 1367.69 308.588C1367.34 308.633 1367.01 308.751 1366.72 308.935C1366.43 309.119 1366.17 309.364 1365.98 309.653C1365.79 309.943 1365.66 310.27 1365.61 310.613C1365.56 310.956 1365.58 311.306 1365.67 311.64H1365.69Z" fill="black"/>
<path d="M1373.88 289.64C1372.34 289.46 1371.37 286.94 1371.37 286.94C1371.37 286.94 1372.89 284.71 1374.43 284.88C1374.78 284.862 1375.14 284.92 1375.46 285.052C1375.79 285.184 1376.09 285.385 1376.33 285.643C1376.57 285.9 1376.76 286.208 1376.87 286.543C1376.98 286.879 1377.01 287.235 1376.97 287.586C1376.93 287.937 1376.82 288.275 1376.63 288.576C1376.45 288.878 1376.2 289.135 1375.9 289.331C1375.61 289.526 1375.28 289.656 1374.93 289.709C1374.58 289.762 1374.22 289.739 1373.88 289.64Z" fill="black"/>
<path d="M1367.23 289.27C1367.73 287.8 1370.4 287.37 1370.4 287.37C1370.4 287.37 1372.27 289.37 1371.78 290.79C1371.72 291.138 1371.59 291.469 1371.4 291.76C1371.2 292.052 1370.94 292.297 1370.64 292.479C1370.34 292.661 1370 292.776 1369.65 292.815C1369.3 292.854 1368.95 292.816 1368.61 292.704C1368.28 292.593 1367.97 292.41 1367.72 292.168C1367.46 291.927 1367.26 291.633 1367.13 291.306C1367 290.98 1366.94 290.628 1366.96 290.277C1366.97 289.925 1367.07 289.582 1367.23 289.27Z" fill="black"/>
<path d="M1367.84 284.04C1368.04 285.57 1370.58 286.51 1370.58 286.51C1370.58 286.51 1372.79 284.95 1372.58 283.42C1372.59 283.073 1372.52 282.729 1372.38 282.411C1372.24 282.094 1372.03 281.81 1371.77 281.579C1371.51 281.348 1371.21 281.176 1370.87 281.074C1370.54 280.972 1370.19 280.942 1369.85 280.987C1369.5 281.032 1369.17 281.15 1368.88 281.334C1368.59 281.518 1368.33 281.763 1368.14 282.053C1367.95 282.342 1367.83 282.67 1367.77 283.013C1367.72 283.355 1367.74 283.706 1367.83 284.04H1367.84Z" fill="black"/>
<path d="M1375.36 337.57C1373.92 338.14 1371.87 336.37 1371.87 336.37C1371.87 336.37 1372.16 333.68 1373.6 333.12C1373.9 332.945 1374.24 332.837 1374.58 332.803C1374.93 332.77 1375.28 332.811 1375.61 332.925C1375.94 333.039 1376.24 333.223 1376.49 333.464C1376.74 333.705 1376.94 333.998 1377.07 334.322C1377.2 334.646 1377.25 334.994 1377.23 335.342C1377.22 335.69 1377.12 336.03 1376.96 336.338C1376.8 336.646 1376.57 336.916 1376.3 337.129C1376.02 337.342 1375.7 337.492 1375.36 337.57Z" fill="black"/>
<path d="M1369.32 340.37C1369.06 338.85 1371.21 337.21 1371.21 337.21C1371.21 337.21 1373.79 338.05 1374.04 339.57C1374.15 339.901 1374.18 340.251 1374.14 340.596C1374.1 340.942 1373.99 341.275 1373.81 341.573C1373.63 341.871 1373.39 342.126 1373.1 342.322C1372.81 342.518 1372.49 342.649 1372.14 342.707C1371.8 342.765 1371.45 342.749 1371.11 342.659C1370.78 342.569 1370.47 342.407 1370.2 342.186C1369.93 341.964 1369.71 341.687 1369.56 341.373C1369.41 341.06 1369.33 340.718 1369.32 340.37Z" fill="black"/>
<path d="M1367.38 335.47C1368.28 336.73 1370.96 336.36 1370.96 336.36C1370.96 336.36 1372.18 333.94 1371.28 332.68C1371.12 332.363 1370.9 332.085 1370.63 331.863C1370.35 331.642 1370.03 331.482 1369.69 331.397C1369.35 331.311 1368.99 331.3 1368.65 331.366C1368.3 331.431 1367.97 331.572 1367.69 331.777C1367.4 331.982 1367.16 332.247 1366.99 332.554C1366.81 332.86 1366.71 333.201 1366.68 333.553C1366.65 333.904 1366.7 334.257 1366.82 334.588C1366.94 334.92 1367.13 335.22 1367.38 335.47Z" fill="black"/>
<path d="M1356.25 359.04C1357.78 359.27 1358.65 361.83 1358.65 361.83C1358.65 361.83 1357.05 364.01 1355.52 363.77C1355.17 363.768 1354.83 363.692 1354.51 363.546C1354.2 363.399 1353.92 363.187 1353.69 362.922C1353.46 362.657 1353.3 362.346 1353.2 362.011C1353.11 361.676 1353.08 361.325 1353.14 360.981C1353.19 360.636 1353.32 360.308 1353.51 360.017C1353.7 359.726 1353.95 359.48 1354.25 359.296C1354.54 359.112 1354.88 358.994 1355.22 358.949C1355.57 358.905 1355.92 358.936 1356.25 359.04Z" fill="black"/>
<path d="M1362.87 359.62C1362.33 361.07 1359.64 361.4 1359.64 361.4C1359.64 361.4 1357.84 359.4 1358.39 357.93C1358.47 357.59 1358.61 357.27 1358.82 356.992C1359.03 356.714 1359.29 356.484 1359.6 356.318C1359.91 356.152 1360.24 356.054 1360.59 356.03C1360.94 356.006 1361.29 356.057 1361.61 356.18C1361.94 356.303 1362.23 356.494 1362.48 356.741C1362.72 356.988 1362.91 357.285 1363.03 357.611C1363.15 357.938 1363.2 358.286 1363.17 358.633C1363.14 358.979 1363.04 359.316 1362.87 359.62Z" fill="black"/>
<path d="M1362.06 364.83C1361.91 363.29 1359.41 362.26 1359.41 362.26C1359.41 362.26 1357.14 363.74 1357.29 365.26C1357.27 365.606 1357.33 365.952 1357.46 366.274C1357.59 366.596 1357.79 366.887 1358.04 367.126C1358.29 367.366 1358.59 367.549 1358.91 367.662C1359.24 367.776 1359.59 367.818 1359.93 367.785C1360.28 367.753 1360.61 367.646 1360.91 367.473C1361.22 367.3 1361.48 367.065 1361.68 366.783C1361.88 366.501 1362.02 366.178 1362.08 365.838C1362.15 365.497 1362.14 365.147 1362.06 364.81V364.83Z" fill="black"/>
<path d="M1355.5 288.35C1356.69 289.35 1356.1 291.98 1356.1 291.98C1356.1 291.98 1353.6 292.98 1352.42 291.98C1352.12 291.798 1351.87 291.555 1351.67 291.265C1351.48 290.976 1351.35 290.648 1351.29 290.303C1351.23 289.959 1351.25 289.607 1351.34 289.27C1351.44 288.934 1351.6 288.621 1351.83 288.354C1352.05 288.087 1352.33 287.872 1352.65 287.723C1352.96 287.574 1353.31 287.496 1353.66 287.492C1354 287.489 1354.35 287.561 1354.67 287.704C1354.99 287.847 1355.27 288.057 1355.5 288.32V288.35Z" fill="black"/>
<path d="M1360.84 292.33C1359.62 293.28 1357.15 292.16 1357.15 292.16C1357.15 292.16 1356.67 289.5 1357.89 288.55C1358.13 288.306 1358.42 288.116 1358.74 287.993C1359.07 287.87 1359.41 287.816 1359.75 287.835C1360.09 287.854 1360.43 287.945 1360.73 288.103C1361.04 288.261 1361.31 288.481 1361.52 288.75C1361.73 289.019 1361.89 289.331 1361.97 289.663C1362.06 289.996 1362.07 290.343 1362.01 290.681C1361.95 291.02 1361.82 291.341 1361.63 291.626C1361.43 291.91 1361.18 292.15 1360.89 292.33H1360.84Z" fill="black"/>
<path d="M1357.44 296.36C1358.12 294.97 1356.52 292.79 1356.52 292.79C1356.52 292.79 1353.82 292.87 1353.14 294.26C1352.94 294.547 1352.81 294.873 1352.75 295.216C1352.69 295.559 1352.7 295.911 1352.79 296.248C1352.88 296.585 1353.04 296.9 1353.26 297.169C1353.48 297.439 1353.76 297.657 1354.07 297.81C1354.38 297.963 1354.72 298.047 1355.07 298.055C1355.42 298.064 1355.77 297.997 1356.09 297.859C1356.41 297.721 1356.69 297.516 1356.93 297.257C1357.16 296.999 1357.34 296.693 1357.44 296.36Z" fill="black"/>
<path d="M1304.63 171.39C1305.81 172.39 1305.23 175.03 1305.23 175.03C1305.23 175.03 1302.72 176.03 1301.54 175.03C1301.24 174.849 1300.98 174.605 1300.78 174.314C1300.58 174.023 1300.45 173.693 1300.39 173.346C1300.33 172.999 1300.35 172.643 1300.45 172.304C1300.54 171.964 1300.7 171.649 1300.93 171.379C1301.16 171.11 1301.44 170.894 1301.76 170.744C1302.08 170.595 1302.42 170.517 1302.78 170.515C1303.13 170.513 1303.48 170.587 1303.8 170.733C1304.12 170.879 1304.4 171.093 1304.63 171.36V171.39Z" fill="black"/>
<path d="M1309.96 175.37C1308.74 176.37 1306.28 175.21 1306.28 175.21C1306.28 175.21 1305.79 172.55 1307.01 171.6C1307.25 171.366 1307.54 171.185 1307.86 171.069C1308.18 170.953 1308.51 170.905 1308.85 170.927C1309.19 170.949 1309.51 171.041 1309.81 171.198C1310.11 171.354 1310.38 171.571 1310.59 171.835C1310.8 172.099 1310.95 172.404 1311.03 172.73C1311.12 173.056 1311.13 173.397 1311.08 173.73C1311.03 174.062 1310.9 174.38 1310.72 174.663C1310.53 174.945 1310.29 175.187 1310.01 175.37H1309.96Z" fill="black"/>
<path d="M1306.57 179.41C1307.25 178.02 1305.64 175.84 1305.64 175.84C1305.64 175.84 1302.94 175.92 1302.26 177.31C1302.06 177.597 1301.92 177.926 1301.85 178.273C1301.79 178.62 1301.8 178.976 1301.89 179.318C1301.98 179.66 1302.14 179.979 1302.36 180.252C1302.58 180.526 1302.86 180.748 1303.18 180.902C1303.5 181.057 1303.84 181.14 1304.19 181.147C1304.55 181.154 1304.9 181.084 1305.22 180.942C1305.54 180.8 1305.83 180.589 1306.06 180.325C1306.3 180.06 1306.47 179.748 1306.57 179.41Z" fill="black"/>
<path d="M1312.24 192.77C1313.06 191.45 1315.75 191.65 1315.75 191.65C1315.75 191.65 1317.12 193.98 1316.31 195.3C1316.18 195.627 1315.97 195.921 1315.71 196.161C1315.46 196.401 1315.15 196.582 1314.81 196.691C1314.47 196.799 1314.12 196.834 1313.77 196.791C1313.42 196.748 1313.08 196.629 1312.78 196.442C1312.48 196.256 1312.22 196.006 1312.03 195.711C1311.84 195.415 1311.71 195.081 1311.66 194.732C1311.61 194.382 1311.63 194.025 1311.73 193.687C1311.83 193.348 1312.01 193.035 1312.24 192.77Z" fill="black"/>
<path d="M1315.42 186.92C1316.53 187.99 1315.78 190.59 1315.78 190.59C1315.78 190.59 1313.22 191.45 1312.1 190.38C1311.81 190.181 1311.57 189.92 1311.39 189.617C1311.21 189.314 1311.09 188.975 1311.06 188.625C1311.02 188.274 1311.06 187.92 1311.18 187.586C1311.29 187.253 1311.48 186.948 1311.72 186.694C1311.97 186.44 1312.26 186.241 1312.59 186.113C1312.92 185.985 1313.27 185.929 1313.62 185.951C1313.98 185.972 1314.32 186.07 1314.63 186.238C1314.94 186.405 1315.21 186.638 1315.42 186.92Z" fill="black"/>
<path d="M1319.89 189.7C1318.42 189.23 1316.49 191.12 1316.49 191.12C1316.49 191.12 1316.95 193.79 1318.43 194.26C1318.74 194.413 1319.08 194.498 1319.43 194.507C1319.78 194.517 1320.12 194.451 1320.44 194.315C1320.76 194.179 1321.05 193.975 1321.29 193.718C1321.52 193.461 1321.7 193.157 1321.8 192.826C1321.91 192.495 1321.94 192.145 1321.9 191.799C1321.86 191.454 1321.74 191.122 1321.56 190.825C1321.38 190.529 1321.14 190.275 1320.85 190.081C1320.56 189.887 1320.23 189.757 1319.89 189.7Z" fill="black"/>
<path d="M1337.34 185.3C1336.63 186.67 1333.93 186.69 1333.93 186.69C1333.93 186.69 1332.37 184.47 1333.09 183.1C1333.2 182.77 1333.38 182.468 1333.62 182.215C1333.86 181.962 1334.15 181.764 1334.48 181.634C1334.8 181.504 1335.15 181.445 1335.5 181.462C1335.84 181.478 1336.18 181.57 1336.49 181.73C1336.8 181.89 1337.07 182.115 1337.29 182.39C1337.5 182.664 1337.66 182.982 1337.74 183.321C1337.82 183.66 1337.82 184.012 1337.75 184.354C1337.69 184.695 1337.54 185.018 1337.34 185.3Z" fill="black"/>
<path d="M1334.64 191.38C1333.44 190.38 1333.98 187.75 1333.98 187.75C1333.98 187.75 1336.47 186.69 1337.67 187.67C1337.98 187.842 1338.24 188.079 1338.45 188.365C1338.66 188.651 1338.8 188.978 1338.86 189.324C1338.93 189.67 1338.92 190.026 1338.83 190.368C1338.75 190.709 1338.59 191.028 1338.37 191.302C1338.15 191.576 1337.87 191.798 1337.55 191.953C1337.24 192.108 1336.89 192.193 1336.54 192.2C1336.19 192.207 1335.84 192.138 1335.51 191.996C1335.19 191.854 1334.9 191.644 1334.67 191.38H1334.64Z" fill="black"/>
<path d="M1329.95 188.96C1331.46 189.32 1333.23 187.27 1333.23 187.27C1333.23 187.27 1332.56 184.65 1331.05 184.27C1330.73 184.141 1330.38 184.084 1330.03 184.102C1329.69 184.119 1329.35 184.212 1329.04 184.372C1328.73 184.533 1328.46 184.758 1328.25 185.033C1328.03 185.307 1327.88 185.624 1327.8 185.963C1327.72 186.301 1327.72 186.652 1327.78 186.993C1327.85 187.334 1327.99 187.657 1328.2 187.938C1328.4 188.22 1328.66 188.454 1328.97 188.625C1329.27 188.796 1329.6 188.9 1329.95 188.93V188.96Z" fill="black"/>
<path d="M1357.14 198.47C1355.93 199.47 1353.45 198.35 1353.45 198.35C1353.45 198.35 1352.93 195.7 1354.14 194.73C1354.38 194.467 1354.67 194.259 1354.99 194.119C1355.31 193.98 1355.66 193.912 1356.02 193.922C1356.37 193.931 1356.72 194.018 1357.03 194.175C1357.35 194.332 1357.63 194.555 1357.85 194.83C1358.07 195.106 1358.23 195.426 1358.31 195.768C1358.39 196.11 1358.4 196.467 1358.34 196.814C1358.27 197.16 1358.13 197.487 1357.92 197.773C1357.71 198.059 1357.45 198.297 1357.14 198.47Z" fill="black"/>
<path d="M1352.19 202.929C1351.5 201.539 1353.07 199.35 1353.07 199.35C1353.07 199.35 1355.77 199.35 1356.47 200.77C1356.68 201.054 1356.82 201.381 1356.89 201.727C1356.96 202.073 1356.96 202.43 1356.87 202.773C1356.79 203.116 1356.63 203.437 1356.42 203.714C1356.2 203.99 1355.92 204.216 1355.61 204.375C1355.29 204.534 1354.94 204.622 1354.59 204.634C1354.24 204.646 1353.89 204.581 1353.56 204.443C1353.24 204.306 1352.95 204.099 1352.71 203.838C1352.47 203.576 1352.3 203.266 1352.19 202.929Z" fill="black"/>
<path d="M1348.9 198.81C1350.13 199.75 1352.58 198.6 1352.58 198.6C1352.58 198.6 1353.03 195.939 1351.8 194.999C1351.56 194.751 1351.26 194.557 1350.94 194.432C1350.62 194.307 1350.27 194.254 1349.92 194.275C1349.57 194.296 1349.24 194.392 1348.93 194.556C1348.62 194.72 1348.36 194.948 1348.14 195.225C1347.93 195.501 1347.79 195.82 1347.71 196.159C1347.63 196.499 1347.63 196.85 1347.7 197.19C1347.77 197.531 1347.92 197.851 1348.13 198.131C1348.33 198.41 1348.6 198.642 1348.9 198.81Z" fill="black"/>
<path d="M1372.71 228.72C1371.51 229.72 1369.03 228.6 1369.03 228.6C1369.03 228.6 1368.51 225.95 1369.72 224.98C1369.96 224.728 1370.25 224.531 1370.57 224.401C1370.89 224.271 1371.23 224.211 1371.58 224.225C1371.92 224.239 1372.26 224.327 1372.57 224.482C1372.88 224.638 1373.15 224.859 1373.37 225.128C1373.58 225.398 1373.74 225.711 1373.82 226.046C1373.91 226.381 1373.92 226.731 1373.86 227.071C1373.8 227.411 1373.67 227.734 1373.47 228.019C1373.27 228.303 1373.02 228.542 1372.72 228.72H1372.71Z" fill="black"/>
<path d="M1367.77 233.179C1367.07 231.789 1368.65 229.6 1368.65 229.6C1368.65 229.6 1371.35 229.6 1372.05 231.02C1372.26 231.304 1372.4 231.631 1372.47 231.977C1372.54 232.323 1372.54 232.68 1372.45 233.023C1372.37 233.366 1372.21 233.687 1372 233.964C1371.78 234.24 1371.5 234.466 1371.19 234.625C1370.87 234.784 1370.52 234.872 1370.17 234.884C1369.82 234.896 1369.47 234.831 1369.14 234.693C1368.82 234.556 1368.53 234.349 1368.29 234.088C1368.05 233.826 1367.88 233.516 1367.77 233.179Z" fill="black"/>
<path d="M1364.47 229.04C1365.71 229.98 1368.15 228.83 1368.15 228.83C1368.15 228.83 1368.61 226.17 1367.37 225.23C1367.13 224.981 1366.83 224.788 1366.51 224.663C1366.18 224.538 1365.84 224.484 1365.49 224.506C1365.14 224.527 1364.8 224.623 1364.5 224.787C1364.19 224.951 1363.92 225.179 1363.71 225.455C1363.5 225.732 1363.35 226.051 1363.28 226.39C1363.2 226.729 1363.2 227.081 1363.27 227.421C1363.34 227.761 1363.49 228.082 1363.69 228.361C1363.9 228.64 1364.17 228.872 1364.47 229.04Z" fill="black"/>
<path d="M1334.55 205.7C1335.55 204.52 1338.18 205.09 1338.18 205.09C1338.18 205.09 1339.18 207.59 1338.18 208.78C1338 209.074 1337.75 209.326 1337.46 209.518C1337.18 209.71 1336.85 209.837 1336.51 209.892C1336.16 209.947 1335.81 209.927 1335.48 209.835C1335.15 209.742 1334.84 209.579 1334.57 209.356C1334.3 209.133 1334.09 208.856 1333.94 208.543C1333.79 208.23 1333.71 207.888 1333.71 207.542C1333.7 207.195 1333.77 206.851 1333.91 206.533C1334.05 206.215 1334.25 205.931 1334.51 205.7H1334.55Z" fill="black"/>
<path d="M1338.5 200.35C1339.5 201.57 1338.36 204.04 1338.36 204.04C1338.36 204.04 1335.7 204.54 1334.74 203.32C1334.5 203.079 1334.31 202.79 1334.19 202.472C1334.07 202.154 1334.02 201.814 1334.04 201.474C1334.06 201.134 1334.15 200.802 1334.3 200.5C1334.46 200.197 1334.68 199.931 1334.94 199.719C1335.21 199.507 1335.52 199.353 1335.85 199.267C1336.18 199.182 1336.52 199.168 1336.86 199.224C1337.19 199.281 1337.51 199.408 1337.8 199.597C1338.08 199.786 1338.32 200.032 1338.5 200.32V200.35Z" fill="black"/>
<path d="M1342.55 203.73C1341.16 203.06 1338.99 204.67 1338.99 204.67C1338.99 204.67 1339.07 207.37 1340.47 208.05C1340.76 208.253 1341.09 208.39 1341.44 208.453C1341.78 208.516 1342.14 208.502 1342.48 208.414C1342.82 208.325 1343.14 208.163 1343.41 207.939C1343.68 207.714 1343.9 207.434 1344.06 207.116C1344.21 206.798 1344.29 206.451 1344.3 206.098C1344.3 205.746 1344.23 205.396 1344.09 205.074C1343.94 204.752 1343.73 204.464 1343.47 204.232C1343.2 204 1342.89 203.829 1342.55 203.73Z" fill="black"/>
<path d="M1361.27 251.799C1362.27 250.609 1364.9 251.179 1364.9 251.179C1364.9 251.179 1365.9 253.68 1364.9 254.87C1364.72 255.175 1364.48 255.437 1364.19 255.639C1363.9 255.841 1363.57 255.977 1363.22 256.038C1362.87 256.099 1362.52 256.083 1362.17 255.992C1361.83 255.901 1361.52 255.737 1361.24 255.51C1360.97 255.284 1360.75 255.002 1360.6 254.682C1360.45 254.363 1360.37 254.014 1360.37 253.661C1360.37 253.308 1360.44 252.958 1360.59 252.636C1360.74 252.315 1360.95 252.029 1361.22 251.799H1361.27Z" fill="black"/>
<path d="M1365.23 246.45C1366.18 247.66 1365.08 250.13 1365.08 250.13C1365.08 250.13 1362.42 250.63 1361.46 249.41C1361.21 249.17 1361.02 248.879 1360.89 248.558C1360.76 248.236 1360.7 247.891 1360.72 247.545C1360.74 247.2 1360.83 246.862 1360.98 246.553C1361.14 246.245 1361.36 245.975 1361.63 245.759C1361.9 245.544 1362.22 245.388 1362.55 245.304C1362.89 245.22 1363.24 245.208 1363.58 245.269C1363.92 245.331 1364.24 245.465 1364.53 245.661C1364.81 245.858 1365.05 246.113 1365.23 246.41V246.45Z" fill="black"/>
<path d="M1369.27 249.82C1367.88 249.15 1365.71 250.76 1365.71 250.76C1365.71 250.76 1365.8 253.46 1367.19 254.14C1367.48 254.343 1367.81 254.481 1368.16 254.544C1368.5 254.607 1368.86 254.593 1369.2 254.504C1369.54 254.415 1369.86 254.253 1370.13 254.029C1370.4 253.805 1370.63 253.525 1370.78 253.207C1370.93 252.889 1371.01 252.542 1371.02 252.189C1371.02 251.836 1370.95 251.487 1370.81 251.165C1370.67 250.842 1370.45 250.555 1370.19 250.323C1369.92 250.091 1369.61 249.919 1369.27 249.82Z" fill="black"/>
<path d="M1347.54 220.04C1349.05 219.69 1350.81 221.74 1350.81 221.74C1350.81 221.74 1350.12 224.36 1348.61 224.74C1348.29 224.865 1347.94 224.918 1347.59 224.897C1347.25 224.876 1346.91 224.781 1346.6 224.618C1346.3 224.455 1346.03 224.229 1345.82 223.953C1345.61 223.678 1345.46 223.36 1345.38 223.022C1345.3 222.684 1345.3 222.334 1345.37 221.994C1345.44 221.654 1345.58 221.334 1345.79 221.054C1345.99 220.774 1346.25 220.541 1346.56 220.371C1346.86 220.202 1347.19 220.099 1347.54 220.07V220.04Z" fill="black"/>
<path d="M1353.93 218.21C1353.93 219.76 1351.58 221.05 1351.58 221.05C1351.58 221.05 1349.17 219.84 1349.14 218.29C1349.09 217.947 1349.1 217.597 1349.2 217.263C1349.29 216.928 1349.45 216.617 1349.67 216.351C1349.9 216.085 1350.17 215.87 1350.49 215.721C1350.8 215.572 1351.14 215.491 1351.49 215.486C1351.84 215.48 1352.18 215.549 1352.5 215.688C1352.82 215.826 1353.1 216.032 1353.33 216.29C1353.56 216.549 1353.74 216.854 1353.84 217.185C1353.94 217.516 1353.97 217.866 1353.93 218.21Z" fill="black"/>
<path d="M1355.11 223.35C1354.41 221.97 1351.71 221.939 1351.71 221.939C1351.71 221.939 1350.14 224.14 1350.84 225.52C1350.95 225.848 1351.13 226.15 1351.37 226.403C1351.61 226.656 1351.9 226.854 1352.22 226.985C1352.54 227.116 1352.89 227.177 1353.23 227.163C1353.58 227.148 1353.92 227.059 1354.23 226.902C1354.54 226.745 1354.81 226.523 1355.03 226.251C1355.24 225.979 1355.4 225.664 1355.48 225.327C1355.56 224.99 1355.57 224.639 1355.51 224.298C1355.45 223.957 1355.31 223.633 1355.11 223.35Z" fill="black"/>
<path d="M1416.66 253.04C1415.23 253.62 1413.17 251.86 1413.17 251.86C1413.17 251.86 1413.43 249.17 1414.87 248.59C1415.17 248.408 1415.51 248.293 1415.86 248.254C1416.21 248.215 1416.57 248.253 1416.9 248.364C1417.23 248.476 1417.54 248.659 1417.8 248.9C1418.05 249.141 1418.25 249.436 1418.38 249.763C1418.52 250.089 1418.57 250.441 1418.56 250.793C1418.54 251.144 1418.44 251.488 1418.28 251.8C1418.12 252.111 1417.89 252.384 1417.61 252.598C1417.33 252.812 1417.01 252.963 1416.66 253.04Z" fill="black"/>
<path d="M1410.65 255.89C1410.38 254.36 1412.52 252.71 1412.52 252.71C1412.52 252.71 1415.1 253.52 1415.37 255.05C1415.49 255.383 1415.53 255.737 1415.5 256.088C1415.47 256.439 1415.36 256.779 1415.18 257.084C1415 257.389 1414.76 257.652 1414.47 257.854C1414.18 258.056 1413.85 258.193 1413.51 258.255C1413.16 258.317 1412.8 258.302 1412.46 258.212C1412.12 258.122 1411.8 257.959 1411.53 257.734C1411.26 257.509 1411.04 257.227 1410.89 256.909C1410.74 256.59 1410.65 256.243 1410.65 255.89Z" fill="black"/>
<path d="M1408.67 251.04C1409.58 252.29 1412.26 251.89 1412.26 251.89C1412.26 251.89 1413.46 249.47 1412.55 248.22C1412.39 247.906 1412.17 247.629 1411.89 247.41C1411.62 247.191 1411.3 247.035 1410.95 246.952C1410.61 246.869 1410.25 246.862 1409.91 246.93C1409.56 246.998 1409.24 247.141 1408.95 247.348C1408.67 247.555 1408.43 247.822 1408.26 248.129C1408.09 248.437 1407.98 248.778 1407.96 249.129C1407.93 249.48 1407.98 249.833 1408.1 250.163C1408.23 250.493 1408.42 250.792 1408.67 251.04Z" fill="black"/>
<path d="M1403.29 270.689C1401.8 270.279 1401.24 267.63 1401.24 267.63C1401.24 267.63 1403.09 265.63 1404.58 266.08C1404.93 266.123 1405.26 266.24 1405.55 266.423C1405.85 266.607 1406.1 266.852 1406.29 267.141C1406.49 267.431 1406.61 267.759 1406.67 268.103C1406.72 268.447 1406.7 268.798 1406.61 269.133C1406.52 269.468 1406.35 269.779 1406.13 270.044C1405.9 270.31 1405.62 270.524 1405.31 270.672C1404.99 270.819 1404.65 270.898 1404.3 270.901C1403.95 270.904 1403.61 270.832 1403.29 270.689Z" fill="black"/>
<path d="M1396.79 269.29C1397.5 267.91 1400.21 267.91 1400.21 267.91C1400.21 267.91 1401.76 270.12 1401.04 271.5C1400.93 271.828 1400.74 272.127 1400.5 272.377C1400.26 272.628 1399.97 272.824 1399.65 272.952C1399.33 273.08 1398.98 273.137 1398.63 273.119C1398.29 273.101 1397.95 273.009 1397.64 272.849C1397.33 272.689 1397.06 272.465 1396.85 272.191C1396.63 271.917 1396.48 271.601 1396.4 271.263C1396.32 270.926 1396.31 270.575 1396.38 270.234C1396.45 269.894 1396.59 269.572 1396.79 269.29Z" fill="black"/>
<path d="M1398.2 264.21C1398.2 265.75 1400.52 267.07 1400.52 267.07C1400.52 267.07 1402.95 265.88 1402.99 264.33C1403.06 263.983 1403.05 263.626 1402.97 263.282C1402.88 262.939 1402.72 262.618 1402.5 262.343C1402.28 262.067 1402 261.843 1401.68 261.686C1401.37 261.529 1401.02 261.443 1400.67 261.434C1400.31 261.426 1399.96 261.494 1399.64 261.635C1399.31 261.776 1399.02 261.986 1398.79 262.25C1398.55 262.514 1398.38 262.826 1398.28 263.165C1398.18 263.503 1398.15 263.86 1398.2 264.21Z" fill="black"/>
<path d="M1392.72 253.57C1392.63 255.11 1390.16 256.23 1390.16 256.23C1390.16 256.23 1387.85 254.83 1387.94 253.29C1387.91 252.943 1387.95 252.595 1388.07 252.267C1388.19 251.939 1388.37 251.641 1388.62 251.391C1388.86 251.142 1389.15 250.948 1389.47 250.822C1389.8 250.696 1390.15 250.641 1390.49 250.661C1390.84 250.682 1391.18 250.776 1391.49 250.939C1391.79 251.102 1392.06 251.33 1392.27 251.606C1392.48 251.882 1392.63 252.2 1392.71 252.539C1392.79 252.878 1392.79 253.229 1392.72 253.57Z" fill="black"/>
<path d="M1392.72 260.22C1391.23 259.82 1390.65 257.22 1390.65 257.22C1390.65 257.22 1392.49 255.22 1393.98 255.65C1394.33 255.692 1394.66 255.808 1394.95 255.989C1395.25 256.171 1395.5 256.414 1395.7 256.702C1395.89 256.991 1396.02 257.318 1396.08 257.66C1396.13 258.003 1396.12 258.354 1396.02 258.689C1395.93 259.025 1395.77 259.336 1395.55 259.603C1395.32 259.87 1395.05 260.086 1394.73 260.236C1394.42 260.386 1394.08 260.466 1393.73 260.472C1393.38 260.478 1393.04 260.409 1392.72 260.27V260.22Z" fill="black"/>
<path d="M1387.45 259.92C1388.98 259.63 1389.77 257.04 1389.77 257.04C1389.77 257.04 1388.09 254.92 1386.57 255.21C1386.22 255.225 1385.88 255.314 1385.58 255.471C1385.27 255.629 1384.99 255.851 1384.78 256.122C1384.56 256.393 1384.41 256.708 1384.33 257.044C1384.24 257.381 1384.23 257.731 1384.3 258.072C1384.36 258.413 1384.49 258.736 1384.69 259.02C1384.89 259.303 1385.15 259.541 1385.45 259.716C1385.75 259.891 1386.08 260 1386.43 260.035C1386.77 260.071 1387.12 260.031 1387.45 259.92Z" fill="black"/>
<path d="M1327.77 385.479H1405.72C1405.99 385.479 1406.26 385.539 1406.5 385.656C1406.74 385.772 1406.96 385.942 1407.13 386.152C1407.3 386.362 1407.42 386.608 1407.48 386.87C1407.54 387.133 1407.54 387.406 1407.48 387.669L1406.48 392.51C1406.39 392.913 1406.17 393.273 1405.85 393.531C1405.52 393.79 1405.12 393.93 1404.71 393.929H1329.64C1329.27 393.93 1328.92 393.819 1328.61 393.61C1328.31 393.4 1328.08 393.104 1327.95 392.76L1326.13 387.919C1326.03 387.65 1325.99 387.36 1326.03 387.074C1326.06 386.788 1326.16 386.514 1326.32 386.275C1326.48 386.036 1326.7 385.839 1326.95 385.7C1327.2 385.562 1327.48 385.486 1327.77 385.479V385.479Z" stroke="black" stroke-miterlimit="10"/>
<path d="M1333.96 401.55C1334.82 401.55 1400.51 393.93 1400.51 393.93H1333.17L1333.96 401.55Z" fill="black"/>
<path d="M313.931 258.74H332.161C332.362 258.741 332.562 258.783 332.746 258.866C332.93 258.948 333.095 259.067 333.229 259.217C333.364 259.367 333.466 259.544 333.528 259.735C333.59 259.927 333.612 260.13 333.591 260.33L331.791 278.15C331.746 278.608 331.533 279.031 331.193 279.34C330.853 279.649 330.41 279.82 329.951 279.82H315.721C315.253 279.822 314.803 279.646 314.46 279.329C314.117 279.012 313.906 278.576 313.871 278.11L312.481 260.29C312.466 260.091 312.492 259.891 312.558 259.703C312.624 259.515 312.729 259.342 312.865 259.197C313.001 259.051 313.166 258.935 313.35 258.857C313.533 258.778 313.731 258.738 313.931 258.74V258.74Z" stroke="black" stroke-miterlimit="10"/>
<path d="M312.721 263.33H333.291L313.011 267.01L312.721 263.33Z" fill="black"/>
<path d="M331.26 254.04C331.246 254.686 331.064 255.318 330.73 255.872C330.397 256.427 329.925 256.884 329.36 257.199C327.43 258.24 325.248 258.721 323.06 258.59C319.27 258.59 317.06 257.66 316 256.28C315.425 255.492 315.176 254.513 315.305 253.546C315.433 252.58 315.929 251.7 316.69 251.09C317.9 250.09 319.96 249.479 323.06 249.479C326.58 249.479 328.9 250.279 330.15 251.479C330.5 251.808 330.779 252.204 330.97 252.645C331.161 253.085 331.26 253.56 331.26 254.04V254.04Z" stroke="black" stroke-miterlimit="10"/>
<path d="M330.33 242.94C330.523 243.345 330.608 243.793 330.574 244.24C330.541 244.688 330.391 245.119 330.139 245.49C329.265 246.734 328.064 247.713 326.669 248.32C324.319 249.51 322.67 249.62 321.57 249.09C320.968 248.781 320.509 248.252 320.288 247.613C320.066 246.975 320.099 246.275 320.38 245.66C321.168 244.308 322.381 243.253 323.83 242.66C326 241.56 327.69 241.33 328.83 241.66C329.154 241.759 329.455 241.923 329.713 242.143C329.972 242.363 330.181 242.635 330.33 242.94V242.94Z" stroke="black" stroke-miterlimit="10"/>
<path d="M326.59 237.84C326.739 237.807 326.894 237.813 327.04 237.859C327.185 237.905 327.317 237.988 327.42 238.1C327.766 238.479 327.998 238.946 328.09 239.45C328.2 239.732 328.244 240.035 328.22 240.336C328.196 240.638 328.103 240.93 327.95 241.19C327.833 241.34 327.666 241.442 327.48 241.48C327.351 241.515 327.216 241.519 327.086 241.491C326.955 241.463 326.833 241.405 326.73 241.32C326.344 240.961 326.09 240.482 326.01 239.96C325.814 239.4 325.835 238.786 326.07 238.24C326.126 238.142 326.201 238.057 326.29 237.988C326.379 237.919 326.481 237.869 326.59 237.84Z" fill="black"/>
<path d="M284.17 279.82L313.69 275.76V280.2L284.17 279.82Z" fill="black"/>
<path d="M-65.9892 287.63C-163.879 213.27 -99.6293 -15.4802 78.6807 12.2598C256.991 39.9998 472.601 440.61 709.591 0.259766" stroke="black" stroke-opacity="0.24" stroke-miterlimit="10"/>
</g>
<defs>
<clipPath id="clip0_43_3170">
<rect width="2307" height="461" fill="white" transform="translate(-115)"/>
</clipPath>
</defs>
</svg>
