<svg width="589" height="538" viewBox="0 0 589 538" fill="none" xmlns="http://www.w3.org/2000/svg">
<path d="M337.793 292.319C327.79 309.645 305.404 315.463 287.785 305.291C283.344 302.727 282.054 298.822 281.602 294.265C281.44 292.626 281.388 290.927 281.335 289.183C281.314 288.485 281.292 287.78 281.263 287.068C281.163 284.594 280.973 282.068 280.378 279.623C279.831 277.375 278.926 275.055 277.965 272.73C277.771 272.261 277.575 271.792 277.379 271.323C276.599 269.456 275.82 267.59 275.178 265.729C273.572 261.07 272.894 256.612 275.214 252.594C276.701 250.018 278.743 248.613 281.245 248.079C283.772 247.54 286.806 247.884 290.259 248.899C297.17 250.932 305.549 255.586 314.487 260.747C317.183 262.304 319.849 263.734 322.376 265.09C324.027 265.976 325.619 266.831 327.121 267.668C330.949 269.8 334.232 271.838 336.639 274.083C339.037 276.32 340.534 278.734 340.849 281.62C341.165 284.517 340.301 287.977 337.793 292.319Z" stroke="white" stroke-opacity="0.15"/>
<path d="M371.742 301.314C352.515 334.615 309.581 345.834 275.84 326.354C267.205 321.368 264.724 313.745 263.869 304.988C263.562 301.845 263.467 298.582 263.37 295.248C263.332 293.92 263.293 292.581 263.24 291.234C263.055 286.523 262.701 281.74 261.585 277.124C260.558 272.873 258.851 268.477 257.028 264.045C256.661 263.155 256.29 262.263 255.919 261.371C254.438 257.81 252.95 254.235 251.728 250.673C248.67 241.759 247.333 233.09 251.865 225.241C254.768 220.213 258.768 217.446 263.663 216.394C268.583 215.337 274.444 216.006 281.051 217.944C294.271 221.821 310.266 230.71 327.266 240.525C332.396 243.487 337.454 246.2 342.255 248.776C345.399 250.463 348.434 252.091 351.307 253.691C358.596 257.751 364.886 261.653 369.507 265.969C374.121 270.278 377.04 274.972 377.648 280.619C378.257 286.277 376.555 292.977 371.742 301.314Z" stroke="white" stroke-opacity="0.15"/>
<path d="M412.902 312.349C382.609 364.817 314.832 382.414 261.511 351.63C247.782 343.703 243.836 331.597 242.467 317.783C241.977 312.829 241.82 307.682 241.66 302.435C241.596 300.348 241.532 298.247 241.446 296.135C241.146 288.729 240.579 281.231 238.819 273.997C237.197 267.333 234.507 260.434 231.626 253.461C231.048 252.063 230.463 250.662 229.877 249.259C227.535 243.654 225.181 238.018 223.245 232.404C218.403 218.361 216.244 204.62 223.43 192.174C228.031 184.205 234.393 179.811 242.181 178.15C249.994 176.484 259.281 177.562 269.713 180.629C290.583 186.766 315.826 200.798 342.615 216.265C350.701 220.933 358.661 225.205 366.225 229.263C371.181 231.923 375.967 234.491 380.505 237.019C391.996 243.42 401.938 249.583 409.254 256.407C416.562 263.224 421.218 270.671 422.197 279.642C423.177 288.624 420.481 299.22 412.902 312.349Z" stroke="white" stroke-opacity="0.15"/>
<path d="M446.798 316.588C406.822 385.828 317.191 408.939 246.593 368.18C228.369 357.658 223.119 341.615 221.283 323.366C220.624 316.824 220.407 310.024 220.185 303.099C220.097 300.348 220.009 297.577 219.891 294.795C219.48 285.027 218.717 275.146 216.381 265.615C214.229 256.834 210.665 247.737 206.845 238.532C206.079 236.688 205.304 234.839 204.527 232.988C201.422 225.588 198.297 218.143 195.727 210.727C189.298 192.18 186.398 173.99 195.906 157.521C201.993 146.979 210.429 141.166 220.763 138.98C231.122 136.789 243.426 138.236 257.23 142.306C284.843 150.449 318.245 169.02 353.672 189.474C364.366 195.648 374.887 201.295 384.887 206.663C391.442 210.181 397.773 213.579 403.781 216.926C418.979 225.393 432.144 233.551 441.841 242.582C451.529 251.606 457.723 261.473 459.039 273.36C460.357 285.258 456.798 299.267 446.798 316.588Z" stroke="white" stroke-opacity="0.15"/>
<path d="M481.583 324.135C431.922 410.15 320.902 439.039 233.608 388.639C211.04 375.61 204.575 355.684 202.345 333.043C201.546 324.928 201.293 316.491 201.036 307.903C200.934 304.492 200.831 301.058 200.693 297.612C200.208 285.502 199.288 273.262 196.424 261.461C193.785 250.587 189.401 239.323 184.698 227.92C183.755 225.635 182.8 223.346 181.844 221.052C178.02 211.884 174.171 202.655 171.007 193.462C163.096 170.473 159.537 147.88 171.368 127.387C178.942 114.27 189.421 107.02 202.245 104.278C215.095 101.53 230.335 103.3 247.411 108.316C281.569 118.35 322.861 141.305 366.637 166.579C379.852 174.208 392.851 181.183 405.207 187.813C413.309 192.16 421.134 196.359 428.562 200.497C447.346 210.959 463.624 221.048 475.609 232.234C487.586 243.412 495.245 255.655 496.849 270.43C498.454 285.215 494.004 302.62 481.583 324.135Z" stroke="white" stroke-opacity="0.15"/>
<path d="M507.436 327.781C450.397 426.574 322.661 459.625 222.12 401.578C196.106 386.559 188.635 363.627 186.038 337.6C185.107 328.274 184.805 318.575 184.497 308.706C184.375 304.789 184.251 300.844 184.088 296.886C183.513 282.973 182.438 268.914 179.129 255.36C176.079 242.869 171.022 229.925 165.595 216.817C164.508 214.192 163.406 211.56 162.303 208.924C157.891 198.385 153.448 187.773 149.795 177.205C140.66 150.776 136.525 124.785 150.126 101.228C158.831 86.1506 170.895 77.8221 185.667 74.6842C200.464 71.5408 218.015 73.5988 237.674 79.3871C276.998 90.9654 324.545 117.401 374.944 146.499C390.157 155.282 405.12 163.313 419.344 170.946C428.671 175.952 437.681 180.787 446.235 185.552C467.861 197.599 486.61 209.217 500.422 222.092C514.226 234.959 523.067 249.052 524.935 266.053C526.804 283.064 521.702 303.071 507.436 327.781Z" stroke="white" stroke-opacity="0.15"/>
<path d="M535.01 333.287C470.132 445.659 324.837 483.249 210.477 417.223C180.868 400.128 172.366 374.024 169.411 344.42C168.352 333.812 168.008 322.779 167.658 311.557C167.519 307.103 167.379 302.618 167.193 298.119C166.539 282.3 165.317 266.318 161.555 250.912C158.088 236.714 152.339 222 146.167 207.095C144.932 204.11 143.679 201.118 142.424 198.121C137.407 186.137 132.353 174.067 128.198 162.047C117.808 131.99 113.098 102.411 128.578 75.5971C138.486 58.4359 152.221 48.9536 169.038 45.3816C185.88 41.8041 205.851 44.1478 228.211 50.7316C272.936 63.9009 327.012 93.967 384.32 127.054C401.62 137.042 418.632 146.172 434.806 154.852C445.413 160.544 455.658 166.043 465.388 171.463C489.98 185.163 511.307 198.377 527.02 213.024C542.725 227.662 552.79 243.702 554.917 263.055C557.045 282.418 551.236 305.184 535.01 333.287Z" stroke="white" stroke-opacity="0.15"/>
</svg>
